<svg width="43" height="43" viewBox="0 0 43 43" fill="none" xmlns="http://www.w3.org/2000/svg">
<path fill-rule="evenodd" clip-rule="evenodd" d="M5.75 3.51501H37.25C37.9459 3.51581 38.6132 3.79263 39.1053 4.28474C39.5974 4.77685 39.8742 5.44407 39.875 6.14001V37.64C39.8741 38.3359 39.5972 39.0031 39.1051 39.4951C38.613 39.9872 37.9459 40.2641 37.25 40.265H5.75C5.05405 40.2642 4.38684 39.9874 3.89473 39.4953C3.40262 39.0032 3.1258 38.336 3.125 37.64V6.14001C3.12569 5.44403 3.40248 4.77676 3.89461 4.28463C4.38674 3.79249 5.05402 3.51571 5.75 3.51501ZM18.875 15.3275H37.25V6.14001H18.875V15.3275ZM16.25 15.3275V6.14001H5.75V15.3275H16.25ZM5.75 17.9525V37.64H37.2526L37.2509 17.9525H5.75ZM14.9375 35.015C13.1976 35.013 11.5296 34.3209 10.2994 33.0906C9.06911 31.8604 8.37705 30.1924 8.375 28.4525H11C11 29.2313 11.2309 29.9926 11.6636 30.6401C12.0962 31.2876 12.7112 31.7923 13.4307 32.0903C14.1502 32.3883 14.9419 32.4663 15.7057 32.3144C16.4695 32.1624 17.1711 31.7874 17.7217 31.2367C18.2724 30.6861 18.6474 29.9845 18.7993 29.2207C18.9513 28.4569 18.8733 27.6652 18.5753 26.9457C18.2773 26.2262 17.7726 25.6113 17.1251 25.1786C16.4775 24.7459 15.7163 24.515 14.9375 24.515V21.89C16.678 21.89 18.3472 22.5814 19.5779 23.8121C20.8086 25.0428 21.5 26.712 21.5 28.4525C21.5 30.193 20.8086 31.8622 19.5779 33.0929C18.3472 34.3236 16.678 35.015 14.9375 35.015ZM26.75 21.89H29.375V35.015H26.75V21.89ZM32 28.4525H34.625V35.015H32V28.4525Z" fill="#081A1C"/>
</svg>
