<!-- Generated by IcoMoon.io -->
<svg version="1.1" xmlns="http://www.w3.org/2000/svg" width="33" height="32" viewBox="0 0 33 32">
<title>cevre</title>
<path fill="#fff" d="M21.459 26.431h5.186c2.743 0 4.968-2.222 4.968-4.963 0-2.735-2.213-4.952-4.946-4.964l-0.058 0.002c-0.345 0-0.636-0.259-0.674-0.601-0.27-2.446-2.558-4.387-5.153-4.387-2.493 0-4.437 1.839-4.718 4.387l-1.348-0.147c0.355-3.218 2.863-5.591 6.066-5.591 3.068 0 5.792 2.148 6.407 5.010 3.239 0.275 5.78 2.987 5.78 6.292 0 3.487-2.83 6.315-6.323 6.315h-5.186v4.068h-1.356v-4.068h-5.429v-1.352h5.429v-2.433l-2.516-2.513 0.96-0.954 1.556 1.554v-6.499h1.356v6.499l1.556-1.555 0.96 0.954-2.516 2.514v2.433zM8.567 18.696l1.556-1.554 0.96 0.954-2.516 2.513v6.464c3.054-0.337 5.43-2.924 5.43-6.065 0-1.177-0.812-3.353-2.232-6.157-0.53-1.062-0.889-1.73-1.258-2.39l0.181 0.352c-1.148-2.095-2.075-3.653-3.043-5.183l0.245 0.415c-0.722 1.115-1.65 2.673-2.536 4.258l-0.262 0.511c-0.189 0.309-0.548 0.976-0.896 1.65l-0.182 0.388c-1.42 2.804-2.232 4.98-2.232 6.157 0 3.142 2.376 5.728 5.429 6.065v-3.074l-3.194-3.191 0.96-0.954 2.234 2.232v-7.177h1.356v3.788zM8.567 28.431v3.421h-1.356v-3.421c-3.805-0.343-6.786-3.535-6.786-7.423 0-1.465 0.861-3.77 2.378-6.766 0.54-1.083 0.906-1.763 1.282-2.437l-0.184 0.359c1.015-1.856 1.793-3.177 2.6-4.478l-0.252 0.436c0.598-0.995 0.951-1.553 1.31-2.108l-0.24 0.396c0.123-0.187 0.332-0.309 0.57-0.309s0.447 0.122 0.568 0.307l0.002 0.003c0.119 0.158 0.472 0.717 0.82 1.279l0.25 0.433c0.8 1.31 1.6 2.68 2.348 4.041 0.192 0.314 0.557 0.995 0.912 1.682l0.186 0.396c1.517 2.996 2.378 5.301 2.378 6.766 0 3.888-2.981 7.081-6.786 7.423zM15.548 4.228c-0.557 0.859-1.325 2.143-2.064 3.446l-0.254 0.486c-0.12 0.184-0.414 0.72-0.701 1.261l-0.183 0.378-1.203-0.625c0.283-0.542 0.584-1.1 0.901-1.67 1.006-1.814 1.784-3.116 2.592-4.398l-0.242 0.412c0.587-0.963 0.941-1.513 1.3-2.060l-0.229 0.372c0.123-0.185 0.331-0.305 0.567-0.305s0.444 0.12 0.565 0.303l0.002 0.002c0.131 0.176 0.484 0.726 0.832 1.279l0.238 0.406c0.8 1.29 1.6 2.639 2.348 3.983 0.318 0.572 0.621 1.131 0.905 1.676l-1.203 0.623c-0.471-0.919-0.766-1.457-1.068-1.99l0.18 0.346c-1.138-2.046-2.065-3.581-3.032-5.087l0.233 0.388c-0.153 0.242-0.314 0.5-0.484 0.773zM29.603 3.726c0-1.312-1.063-2.375-2.375-2.375s-2.375 1.063-2.375 2.375v0c0.001 1.311 1.064 2.374 2.375 2.374 0 0 0 0 0.001 0h-0c0 0 0.001 0 0.001 0 1.311 0 2.374-1.063 2.374-2.374v0zM30.958 3.726c-0.002 2.058-1.67 3.725-3.728 3.725-0.001 0-0.002 0-0.003 0h0c-2.061 0-3.732-1.668-3.732-3.726-0.001-2.057 1.67-3.725 3.732-3.725 2.061 0 3.731 1.668 3.731 3.725z"></path>
</svg>
