<!-- Generated by IcoMoon.io -->
<svg version="1.1" xmlns="http://www.w3.org/2000/svg" width="31" height="32" viewBox="0 0 31 32">
<title>enerji</title>
<path fill="#fff" d="M14.528 30.221v-7.527c-1.272-1.819-2.975-3.026-5.159-3.849-0.763-0.287-1.567-0.523-2.503-0.746-0.071-0.030-0.474-0.122-0.88-0.21l-0.318-0.058-0.573-0.121c-0.812-0.16-1.126-0.231-1.439-0.303l0.508 0.099 0.303-1.24c0.113 0.026 0.233 0.053 0.364 0.082 0.155 0.034 0.318 0.069 0.542 0.116l0.575 0.122c0.484 0.103 0.857 0.186 1.231 0.275 0.987 0.235 1.843 0.486 2.664 0.796 0.517 0.195 1.013 0.411 1.485 0.65-0.025-1.333-0.862-2.764-1.805-3.171-1.446-0.624-2.462-0.543-4.69 0.105l-0.414 0.12c-1.078 0.308-1.864 0.462-2.639 0.458 0.287 2.134 2.097 4.165 4.566 4.993 1.377 0.462 2.687 0.010 3.824-0.931l0.85 0.971c-1.454 1.203-3.197 1.804-5.101 1.166-3.241-1.087-5.547-3.947-5.488-6.901l0.014-0.721 0.735 0.103c0.833 0.117 1.596 0.003 2.87-0.361 0.11-0.031 0.179-0.051 0.407-0.118 2.505-0.729 3.786-0.831 5.597-0.049 1.615 0.696 2.857 3.034 2.533 5.064 0.731 0.484 1.366 1.016 1.937 1.612l0.004 0.004v-6.512h-0.003c-2.18 0-3.947-1.725-3.947-3.852v-2.255c-0.177-0.143-0.335-0.291-0.483-0.448l-0.002-0.002c-0.512-0.543-0.831-1.139-0.831-1.795v-1.923h2.634v-3.863h1.31v3.863h3.957v-3.863h1.311v3.863h2.633v1.923c0 0.656-0.319 1.252-0.831 1.795-0.168 0.178-0.335 0.329-0.486 0.45v2.255c0 2.126-1.767 3.852-3.947 3.852h-0.003v10.663c0.606-0.768 1.273-1.443 2.008-2.037l0.024-0.019c-0.643-2.266 0.49-5.095 2.239-6.069 1.967-1.095 3.429-1.123 6.391-0.573 0.436 0.081 0.609 0.112 0.837 0.151 1.269 0.213 2.146 0.235 3.026 0.020l0.72-0.176 0.090 0.717c0.42 3.348-1.864 6.866-5.426 8.473-2.074 0.936-4.122 0.452-5.912-0.747l0.744-1.050c1.448 0.97 3.048 1.348 4.617 0.64 2.82-1.272 4.697-3.913 4.716-6.48-0.835 0.101-1.702 0.043-2.798-0.141-0.56-0.090-0.852-0.144-1.143-0.201l0.282 0.046c-2.679-0.497-3.875-0.474-5.494 0.427-1.111 0.618-1.939 2.505-1.73 4.12 0.67-0.442 1.445-0.872 2.253-1.243l0.11-0.046c0.88-0.401 1.792-0.747 2.893-1.113 0.428-0.143 2.123-0.681 2.517-0.814l0.431 1.204c-0.409 0.138-2.109 0.678-2.524 0.816-1.060 0.353-1.93 0.683-2.762 1.062-2.741 1.249-4.759 2.924-6.111 5.39v3.062h5.271v1.275h-11.852v-1.275h5.27zM10.572 5.785c0 0.277 0.175 0.603 0.486 0.933 0.162 0.171 0.339 0.325 0.53 0.46l0.011 0.008 0.289 0.19v2.91c0 1.424 1.181 2.577 2.636 2.577h1.317c1.455 0 2.636-1.153 2.636-2.576v-2.911l0.289-0.19c0.202-0.143 0.38-0.297 0.541-0.466l0.001-0.002c0.311-0.33 0.486-0.656 0.486-0.933v-0.648h-9.224v0.648zM13.866 8.995v-1.275h2.634v1.275h-2.634zM13.866 10.923v-1.275h2.634v1.275h-2.634z"></path>
</svg>
