<!-- Generated by IcoMoon.io -->
<svg version="1.1" xmlns="http://www.w3.org/2000/svg" width="25" height="32" viewBox="0 0 25 32">
<title>guvenlik</title>
<path fill="#fff" d="M8.496 13.52v-2.623c0-2.171 1.756-3.931 3.922-3.931s3.921 1.76 3.921 3.931v2.623h0.653c0.722 0 1.308 0.586 1.308 1.308 0 0 0 0 0 0.001v-0 7.21c0 0 0 0.001 0 0.001 0 0.722-0.585 1.308-1.308 1.308h-9.149c-0.722-0-1.308-0.586-1.308-1.308 0-0 0-0.001 0-0.001v0-7.21c0-0 0-0 0-0.001 0-0.722 0.585-1.308 1.308-1.308h0.653zM11.881 0.704c0.119-0.177 0.318-0.292 0.544-0.292s0.425 0.115 0.543 0.289l0.001 0.002c1.086 1.633 8.318 4.951 11.213 4.951 0.361 0 0.654 0.293 0.654 0.654v13.107c0 2.364-2.213 5.127-5.878 8.114-2.403 1.958-5.695 4.115-6.362 4.304-0.116 0.033-0.239 0.033-0.356 0-0.744-0.211-4.005-2.276-6.365-4.22-3.66-3.015-5.876-6.020-5.876-8.853v-12.451c0-0.362 0.293-0.654 0.654-0.654 2.707 0 10.179-3.376 11.227-4.951zM1.307 6.922v11.84c0 2.319 2.020 5.058 5.399 7.842 1.158 0.956 2.446 1.894 3.788 2.754l0.159 0.095c0.727 0.461 1.429 0.864 1.759 1.036 0.319-0.176 1.021-0.598 1.762-1.083 1.516-0.997 2.806-1.948 4.046-2.959l-0.087 0.069c3.363-2.74 5.396-5.279 5.396-7.099v-12.491c-3.209-0.347-9.050-2.98-11.109-4.89-2.074 1.872-8.021 4.52-11.113 4.885zM16.992 22.039l0.001-7.211h-9.15v7.21l9.149 0.001zM15.032 13.52v-2.622c0-1.449-1.17-2.622-2.614-2.622-1.445 0.002-2.615 1.174-2.615 2.619 0 0.001 0 0.003 0 0.004v-0 2.622h5.229z"></path>
</svg>
