<!-- Generated by IcoMoon.io -->
<svg version="1.1" xmlns="http://www.w3.org/2000/svg" width="41" height="32" viewBox="0 0 41 32">
<title>platform</title>
<path fill="#fff" d="M14.509 12.346v-0.007h-0.013l0.013 0.006zM17.572 14.081l3.621 2.050c0.234 0.132 0.389 0.38 0.389 0.663s-0.155 0.53-0.385 0.661l-0.004 0.002-5.908 3.346v7.74h-1.552v-6.861l-7.029 3.981v4.43h32.774v-28.563h-32.774v6.397l7.029 3.981v-3.426h1.552v3.189c1.163 0.295 2.063 1.235 2.287 2.411zM5.15 7.046v-6.281c0-0.423 0.348-0.765 0.776-0.765h34.327c0.429 0 0.776 0.343 0.776 0.765v30.093c0 0.422-0.348 0.765-0.776 0.765h-34.327c-0.002 0-0.004 0-0.006 0-0.424 0-0.767-0.342-0.771-0.765v-4.316l-3.987 2.259c-0.518 0.292-1.163-0.075-1.163-0.663v-22.687c0.001-0.589 0.647-0.956 1.163-0.664l3.987 2.259zM30.896 20.725c-1.346-0.341-2.34-1.548-2.34-2.984s0.994-2.642 2.34-2.983v-6.277h1.552v6.276c1.346 0.341 2.34 1.548 2.34 2.983s-0.995 2.642-2.34 2.984v7.819h-1.552v-7.819zM22.313 25.354c-1.345-0.341-2.34-1.548-2.34-2.984s0.994-2.642 2.34-2.982v-10.907h1.552v10.906c1.346 0.341 2.34 1.547 2.34 2.982s-0.994 2.643-2.34 2.984v3.19h-1.553v-3.19zM7.487 6.159v-1.529h31.206v1.529h-31.206zM8.267 3.844v-1.528h1.561v1.529h-1.561zM10.608 3.844v-1.528h1.56v1.529h-1.56zM12.948 3.844v-1.528h1.56v1.529h-1.56zM24.654 22.37c0-0.856-0.701-1.55-1.565-1.55-0.002 0-0.004 0-0.007 0-0.857 0-1.552 0.693-1.556 1.549v0c0.003 0.857 0.699 1.551 1.557 1.551 0.002 0 0.004 0 0.007 0h-0c0.863 0 1.565-0.694 1.565-1.551zM33.237 17.741c0-0.856-0.702-1.55-1.565-1.55s-1.564 0.693-1.564 1.55c0.004 0.857 0.7 1.55 1.557 1.55 0.002 0 0.005 0 0.007-0h-0c0.863 0 1.565-0.694 1.565-1.55zM19.249 16.794l-17.697-10.022v20.044l17.697-10.022z"></path>
</svg>
