<!-- Generated by IcoMoon.io -->
<svg version="1.1" xmlns="http://www.w3.org/2000/svg" width="39" height="32" viewBox="0 0 39 32">
<title>saglik</title>
<path fill="#fff" d="M32.183 2.422c3.010 2.382 4.096 6.303 3.515 10.203-0.070 0.468-0.147 0.854-0.24 1.234l0.019-0.094c-0.087 0.357-0.405 0.618-0.783 0.618-0.445 0-0.805-0.361-0.805-0.805 0-0.066 0.008-0.131 0.023-0.193l-0.001 0.006c0.078-0.327 0.142-0.661 0.194-1.005 0.503-3.376-0.423-6.72-2.92-8.696-3.625-2.868-9.698-2.11-12.373 2.344-0.143 0.236-0.398 0.391-0.69 0.391s-0.547-0.155-0.688-0.388l-0.002-0.004c-2.675-4.453-8.749-5.211-12.372-2.344-2.498 1.976-3.423 5.319-2.92 8.696 0.746 5.003 4.033 8.522 15.983 17.487 7.039-5.279 10.508-8.206 12.794-10.925 0.148-0.176 0.369-0.287 0.616-0.287 0.199 0 0.38 0.072 0.521 0.191l-0.001-0.001c0.175 0.149 0.286 0.37 0.286 0.617 0 0.199-0.072 0.381-0.19 0.521l0.001-0.001c-2.445 2.906-6.080 5.956-13.544 11.539-0.133 0.1-0.3 0.16-0.482 0.16s-0.349-0.060-0.484-0.162l0.002 0.001c-12.704-9.502-16.251-13.238-17.095-18.904-0.581-3.899 0.505-7.819 3.516-10.201 4.064-3.216 10.606-2.648 14.061 1.774 3.454-4.421 9.996-4.99 14.061-1.774zM14.66 11.184l-2.234 5.562c-0.122 0.299-0.411 0.506-0.747 0.506h-5.638c-0.445-0.001-0.805-0.362-0.805-0.807 0-0 0-0 0-0.001v0c0-0.446 0.36-0.807 0.805-0.807h5.094l3.019-7.514c0.296-0.739 1.37-0.646 1.535 0.135l2.687 12.711 3.031-7.242c0.275-0.656 1.201-0.661 1.482-0.007l1.733 4.026 0.835-1.663c0.135-0.266 0.407-0.444 0.72-0.444h11.276c0.445 0 0.805 0.361 0.805 0.807s-0.36 0.807-0.805 0.807h-10.78l-1.387 2.763c-0.308 0.612-1.188 0.586-1.459-0.043l-1.666-3.871-3.295 7.873c-0.305 0.73-1.367 0.63-1.531-0.145l-2.674-12.645z"></path>
</svg>
