<svg width="60" height="60" viewBox="0 0 60 60" fill="none" xmlns="http://www.w3.org/2000/svg">
<path d="M16.161 36.1758C14.691 36.1758 13.5459 35.7976 12.7257 35.0413C11.9161 34.285 11.5113 33.2464 11.5113 31.9255C11.5113 31.1053 11.6817 30.3756 12.0226 29.7365C12.3635 29.0973 12.8428 28.602 13.4607 28.2505C14.0785 27.8883 14.8029 27.7072 15.6337 27.7072C16.454 27.7072 17.1357 27.8883 17.679 28.2505C18.2329 28.602 18.6483 29.092 18.9253 29.7205C19.2022 30.3383 19.3407 31.0573 19.3407 31.8776V32.4848H13.8921V31.1426H17.2476L16.9759 31.3663C16.9759 30.7591 16.8587 30.3117 16.6244 30.0241C16.4007 29.7258 16.0811 29.5767 15.6657 29.5767C15.1863 29.5767 14.8188 29.7578 14.5632 30.1199C14.3182 30.4715 14.1957 31.0041 14.1957 31.7178V32.0054C14.1957 32.7191 14.3714 33.2411 14.723 33.5713C15.0745 33.9015 15.5805 34.0666 16.2409 34.0666C16.667 34.0666 17.0665 34.0187 17.4393 33.9228C17.8228 33.8269 18.185 33.6725 18.5258 33.4594L19.2608 35.3129C18.8561 35.5899 18.3874 35.8029 17.8547 35.9521C17.3221 36.1012 16.7576 36.1758 16.161 36.1758ZM25.0891 36.1758C24.1836 36.1758 23.3208 36.0692 22.5006 35.8562C21.691 35.6325 21.0093 35.3342 20.4553 34.9614L21.2862 32.6765C21.6378 32.9002 22.0212 33.0919 22.4367 33.2517C22.8521 33.4115 23.2835 33.5393 23.7309 33.6352C24.189 33.7204 24.6523 33.763 25.121 33.763C25.8241 33.763 26.3088 33.6725 26.5751 33.4914C26.852 33.3103 26.9905 33.076 26.9905 32.7883C26.9905 32.5327 26.9 32.3356 26.7189 32.1971C26.5378 32.048 26.1969 31.9202 25.6963 31.8137L23.7469 31.4142C22.7136 31.2012 21.9413 30.8336 21.43 30.3117C20.9187 29.7791 20.6631 29.0867 20.6631 28.2345C20.6631 27.4888 20.8601 26.8444 21.2543 26.3011C21.6591 25.7472 22.2236 25.3211 22.948 25.0228C23.6723 24.7139 24.5192 24.5595 25.4885 24.5595C26.2875 24.5595 27.0385 24.6713 27.7415 24.895C28.4446 25.1081 29.0198 25.4063 29.4672 25.7898L28.6363 27.9309C28.2102 27.622 27.7309 27.3876 27.1982 27.2279C26.6656 27.0574 26.0744 26.9722 25.4246 26.9722C24.8068 26.9722 24.3381 27.0681 24.0185 27.2598C23.7096 27.4409 23.5552 27.7019 23.5552 28.0428C23.5552 28.2771 23.6457 28.4795 23.8268 28.6499C24.0185 28.8097 24.3647 28.9429 24.8654 29.0494L26.7828 29.4329C27.8161 29.6353 28.5884 29.9974 29.0997 30.5194C29.6216 31.0414 29.8826 31.7231 29.8826 32.5646C29.8826 33.289 29.6802 33.9228 29.2754 34.4661C28.8813 35.0093 28.3274 35.4301 27.6137 35.7284C26.9 36.0266 26.0584 36.1758 25.0891 36.1758ZM31.4149 36V27.883H34.2591V36H31.4149ZM31.351 26.7325V24.176H34.339V26.7325H31.351ZM36.0181 36V30.088C36.0181 29.7258 36.0074 29.3583 35.9861 28.9855C35.9648 28.6126 35.9328 28.2451 35.8902 27.883H38.6385L38.7983 29.2891H38.6225C38.8569 28.7991 39.2031 28.4156 39.6611 28.1386C40.1192 27.851 40.6571 27.7072 41.275 27.7072C41.8715 27.7072 42.3775 27.851 42.7929 28.1386C43.219 28.4156 43.5279 28.8577 43.7197 29.4648H43.448C43.7143 28.9109 44.0978 28.4795 44.5985 28.1706C45.1098 27.8617 45.6797 27.7072 46.3082 27.7072C47.2349 27.7072 47.9273 27.9895 48.3854 28.5541C48.8434 29.108 49.0724 29.9761 49.0724 31.1585V36H46.2123V31.2544C46.2123 30.7538 46.1377 30.4022 45.9886 30.1998C45.8395 29.9868 45.5998 29.8803 45.2696 29.8803C44.8541 29.8803 44.5292 30.0294 44.2949 30.3277C44.0712 30.6259 43.9593 31.036 43.9593 31.558V36H41.1152V31.2544C41.1152 30.7538 41.0353 30.4022 40.8755 30.1998C40.7264 29.9868 40.492 29.8803 40.1725 29.8803C39.757 29.8803 39.4321 30.0294 39.1978 30.3277C38.9741 30.6259 38.8622 31.036 38.8622 31.558V36H36.0181Z" fill="url(#paint0_linear_10706_4633)"/>
<path d="M57.42 19.6383C57.78 19.9883 57.99 20.4783 58 20.9783L58 44.8383C58 48.3683 55.14 51.2383 51.6 51.2383L9.4 51.2383C5.87 51.2383 3 48.3783 3 44.8383L3 14.3983C3 10.8683 5.86 7.99828 9.4 7.99828L45.08 7.99828C45.59 7.99828 46.07 8.20828 46.42 8.57828L57.42 19.6383ZM9.39 11.8383C7.98 11.8383 6.83 12.9883 6.83 14.3983L6.83 44.8383C6.83 46.2483 7.98 47.3983 9.39 47.3983L51.6 47.3983C53.01 47.3983 54.16 46.2483 54.16 44.8383L54.16 21.8183L44.25 11.8383L9.4 11.8383L9.39 11.8383Z" fill="url(#paint1_linear_10706_4633)"/>
<defs>
<linearGradient id="paint0_linear_10706_4633" x1="47.66" y1="17.7" x2="39.2828" y2="44.0882" gradientUnits="userSpaceOnUse">
<stop stop-color="#BB2254"/>
<stop offset="1" stop-color="#EF8223"/>
</linearGradient>
<linearGradient id="paint1_linear_10706_4633" x1="28.8501" y1="13.2232" x2="34.2894" y2="46.1513" gradientUnits="userSpaceOnUse">
<stop stop-color="#0ABEC7"/>
<stop offset="1" stop-color="#049EAD"/>
</linearGradient>
</defs>
</svg>
