<svg width="24" height="24" viewBox="0 0 24 24" fill="none" xmlns="http://www.w3.org/2000/svg">
<circle cx="12" cy="12" r="12" fill="#b1b6c1"/>
<path fill-rule="evenodd" clip-rule="evenodd" d="M15.1867 9.89834C16.1358 10.5763 17.3562 10.9831 18.6443 10.9831V8.54241C18.3731 8.54241 18.1697 8.54241 17.8985 8.47461V10.4407C16.6104 10.4407 15.3901 10.0339 14.4409 9.35597V14.3729C14.4409 16.8814 12.407 18.9153 9.89854 18.9153C8.94938 18.9153 8.06803 18.6441 7.32227 18.1695C8.13582 19.0509 9.28837 19.5255 10.5765 19.5255C13.085 19.5255 15.1189 17.4916 15.1189 14.9831L15.1867 9.89834ZM16.0671 7.45687C15.5926 6.91449 15.2536 6.23653 15.1858 5.42297V5.08398H14.5078C14.6434 6.10093 15.2536 6.91449 16.0671 7.45687ZM8.88106 16.203C8.60987 15.864 8.47428 15.3894 8.47428 14.9149C8.47428 13.7623 9.42343 12.8132 10.576 12.8132C10.7794 12.8132 10.9828 12.8132 11.1861 12.881V10.3725C10.915 10.3725 10.7116 10.3047 10.4404 10.3047V12.2708C10.237 12.203 10.0336 12.203 9.83021 12.203C8.67767 12.203 7.72852 13.1521 7.72852 14.3047C7.72852 15.186 8.20309 15.864 8.88106 16.203Z" fill="#A0ACBD"/>
<path fill-rule="evenodd" clip-rule="evenodd" d="M14.4394 9.35573C15.3886 10.0337 16.6089 10.4405 17.897 10.4405V8.47438C17.1513 8.33878 16.5411 7.932 16.0665 7.45743C15.253 6.91506 14.6428 6.1015 14.5072 5.15234H12.6767V15.0506C12.6767 16.2032 11.7276 17.1523 10.575 17.1523C9.89705 17.1523 9.28688 16.8134 8.8801 16.3388C8.20213 15.9998 7.72756 15.254 7.72756 14.4405C7.72756 13.2879 8.67671 12.3388 9.82925 12.3388C10.0326 12.3388 10.236 12.4066 10.4394 12.4066V10.4405C7.93095 10.5083 5.96484 12.5422 5.96484 14.9829C5.96484 16.2032 6.43942 17.3557 7.25298 18.1693C7.99874 18.6439 8.8801 18.9151 9.82925 18.9151C12.3377 18.9151 14.3716 16.8812 14.3716 14.3727V9.35573H14.4394Z" fill="white"/>
<path fill-rule="evenodd" clip-rule="evenodd" d="M17.8969 8.47537V7.933C17.2189 7.933 16.6088 7.72961 16.0664 7.39062C16.541 7.933 17.1512 8.33978 17.8969 8.47537ZM14.4396 5.08478C14.4396 5.01698 14.4396 4.88139 14.3718 4.81359V4.47461H11.8633V14.3729C11.8633 15.5255 10.9142 16.4746 9.76165 16.4746C9.42267 16.4746 9.08369 16.4068 8.8125 16.2712C9.21928 16.7458 9.82945 17.0848 10.5074 17.0848C11.66 17.0848 12.6091 16.1356 12.6091 14.9831V5.08478H14.4396ZM10.508 10.3719V9.82952C10.3046 9.82952 10.1012 9.76172 9.89784 9.76172C7.38937 9.76172 5.35547 11.7956 5.35547 14.3041C5.35547 15.8634 6.16903 17.2871 7.38937 18.1007C6.57581 17.2871 6.10123 16.1346 6.10123 14.9143C6.03343 12.4736 7.99954 10.4397 10.508 10.3719Z" fill="#919EBA"/>
</svg>
