<svg width="160" height="53" viewBox="0 0 160 53" xmlns="http://www.w3.org/2000/svg" xmlns:xlink="http://www.w3.org/1999/xlink">
    <defs>
        <path id="bm7lim0hxa" d="M0 0h160v53H0z"/>
    </defs>
    <g fill="none" fill-rule="evenodd">
        <path d="M4.554 35.868v4.781H5.91c.547 0 1.113-.208 1.463-.561.421-.408.637-1.069.637-1.857 0-.905-.305-1.603-.853-1.992a2.222 2.222 0 0 0-1.247-.371H4.554zm1.633-.78c.548 0 1.05.155 1.463.4.987.588 1.408 1.63 1.408 2.752 0 1.132-.43 2.228-1.408 2.79-.43.253-.978.398-1.463.398H3.558v-6.34h2.63zM10.845 38.738h2.674c0-.77-.36-1.358-1.265-1.358-.763 0-1.283.362-1.41 1.358zm-.027.67c.018.915.69 1.35 1.65 1.35.575 0 1.14-.163 1.57-.362l.172.697a4.343 4.343 0 0 1-1.83.407c-1.643 0-2.531-.914-2.531-2.39 0-1.467.897-2.464 2.378-2.464 1.4 0 2.18.897 2.18 2.274 0 .217-.018.461-.027.489h-3.562zM16.283 38.222c0 .589.475.825 1.103.825.71 0 1.104-.3 1.104-.825 0-.561-.44-.833-1.095-.833-.664 0-1.112.272-1.112.833zm2.333-3.205c-.108.75-.512 1.06-1.248 1.06-.735 0-1.14-.31-1.247-1.06l.557-.064c.098.417.26.643.69.643.431 0 .593-.226.691-.643l.557.064zm-2.199 6.166c-.197.127-.331.29-.331.526 0 .498.582.58 1.3.58.673 0 1.31-.073 1.31-.598 0-.353-.287-.453-.771-.453h-.548c-.278 0-.628 0-.96-.055zm1.741-4.464h1.58v.634l-.737.009c.207.163.44.462.44.969 0 .87-.69 1.458-2.046 1.458-.394 0-.753-.045-1.05-.145-.134.09-.25.218-.242.408.01.39.485.452 1.203.452h.708c.925 0 1.624.272 1.624 1.15 0 1.114-1.121 1.377-2.279 1.377-1.076 0-2.18-.226-2.18-1.177 0-.435.234-.725.52-.924-.242-.154-.394-.38-.394-.733 0-.39.197-.689.475-.87-.278-.244-.44-.606-.44-1.096 0-1.068.772-1.584 2.073-1.584.243 0 .512.018.745.072zM21.29 38.738h2.674c0-.77-.359-1.358-1.265-1.358-.763 0-1.283.362-1.409 1.358zm-.027.67c.018.915.691 1.35 1.651 1.35.574 0 1.14-.163 1.57-.362l.17.697a4.341 4.341 0 0 1-1.83.407c-1.642 0-2.53-.914-2.53-2.39 0-1.467.897-2.464 2.378-2.464 1.4 0 2.18.897 2.18 2.274 0 .217-.018.461-.027.489h-3.562zM28.28 37.624c-.987-.144-1.48.653-1.48 1.621v2.183h-.924v-4.71h.762l.081.997c.189-.516.718-1.123 1.597-.996l-.036.905zM30.093 40.414c0 .308.162.362.359.362.161 0 .314-.009.386-.018l.027.68a3.668 3.668 0 0 1-.727.062c-.673 0-.97-.29-.97-.923v-5.778h.925v5.615zM32.704 35.514c0 .317-.197.462-.53.462-.322 0-.52-.145-.52-.462 0-.307.198-.461.52-.461.333 0 .53.154.53.461zm-.044 5.914h-.925V37.39h-.574v-.67h1.499v4.71zM41.884 41.428h-.996v-2.753h-3.302v2.753h-.996v-6.34h.996v2.808h3.302V35.09h.996zM44.433 35.514c0 .317-.198.462-.53.462-.323 0-.52-.145-.52-.462 0-.307.197-.461.52-.461.332 0 .53.154.53.461zm-.045 5.914h-.924V37.39h-.574v-.67h1.498v4.71zM49 36.972l-.162.626c-.215-.082-.771-.281-1.408-.281-.718 0-.996.262-.996.624 0 .517.476.571 1.202.761.78.217 1.57.462 1.57 1.413 0 .969-.834 1.385-1.866 1.385-.78 0-1.462-.226-1.875-.407l.197-.634c.243.109.853.363 1.57.363.745 0 1.015-.273 1.015-.635 0-.516-.539-.57-1.23-.751-.727-.208-1.534-.435-1.534-1.413 0-.96.772-1.377 1.803-1.377.646 0 1.284.154 1.714.326M53.361 36.972l-.161.626c-.216-.082-.772-.281-1.409-.281-.717 0-.996.262-.996.624 0 .517.476.571 1.203.761.78.217 1.57.462 1.57 1.413 0 .969-.835 1.385-1.867 1.385-.78 0-1.462-.226-1.875-.407l.198-.634c.242.109.852.363 1.57.363.744 0 1.014-.273 1.014-.635 0-.516-.539-.57-1.23-.751-.726-.208-1.534-.435-1.534-1.413 0-.96.772-1.377 1.803-1.377.646 0 1.284.154 1.714.326M55.192 38.738h2.674c0-.77-.359-1.358-1.265-1.358-.763 0-1.283.362-1.409 1.358zm-.027.67c.018.915.691 1.35 1.651 1.35.574 0 1.14-.163 1.57-.362l.171.697a4.341 4.341 0 0 1-1.83.407c-1.642 0-2.53-.914-2.53-2.39 0-1.467.897-2.464 2.377-2.464 1.4 0 2.18.897 2.18 2.274 0 .217-.018.461-.027.489h-3.562zM60.872 36.719h1.292v.67h-1.292v2.645c0 .597.198.778.628.778.234 0 .53-.072.655-.108l.036.643c-.26.1-.619.154-.942.154-.843 0-1.3-.345-1.3-1.44v-2.672h-.665v-.67h.664l.135-1.359h.79v1.359zM64.166 36.719h1.292v.67h-1.292v2.645c0 .597.197.778.628.778.233 0 .529-.072.655-.108l.036.643c-.26.1-.62.154-.942.154-.844 0-1.301-.345-1.301-1.44v-2.672h-.665v-.67h.665l.134-1.359h.79v1.359zM67.441 35.514c0 .317-.197.462-.53.462-.322 0-.52-.145-.52-.462 0-.307.198-.461.52-.461.333 0 .53.154.53.461zm-.045 5.914h-.924V37.39h-.574v-.67h1.498v4.71zM71.183 37.624c-.987-.144-1.48.653-1.48 1.621v2.183h-.925v-4.71h.763l.08.997c.189-.516.718-1.123 1.598-.996l-.036.905zM73.166 35.514c0 .317-.197.462-.53.462-.322 0-.52-.145-.52-.462 0-.307.198-.461.52-.461.333 0 .53.154.53.461zm-.045 5.914h-.924V37.39h-.574v-.67h1.498v4.71zM76.908 37.624c-.987-.144-1.48.653-1.48 1.621v2.183h-.925v-4.71h.763l.08.997c.189-.516.718-1.123 1.598-.996l-.036.905z" fill="#FEFEFE"/>
        <g>
            <mask id="fdq2nyg3gb" fill="#fff">
                <use xlink:href="#bm7lim0hxa"/>
            </mask>
            <path d="m129.75 17.629 6.05 3.525v-7.051l-6.05 3.526zm30.25 0L135.8 3.525v10.577l6.05-3.526V24.68l-6.05-3.526v10.577L160 17.628zM96.447 38.346l-5.135-2.992v5.983l5.135-2.991zm24.323-24.244-6.052-3.527v7.053l6.052-3.526zm-104.762 6.9h2.695v-2.135h-2.695v2.135zm-4.382 0h2.694v-2.135h-2.694v2.135zm8.053 10.717v-9.111h-2.66v4.984c0 1.32-.756 2.31-1.992 2.31-.945 0-1.671-.606-1.671-1.962v-5.332h-2.707v5.314c0 3.026 2.064 3.979 3.809 3.979 1.944 0 2.67-1.265 2.762-1.449l.399 1.267h2.06zM0 17.629v2.357h3.52v11.745h2.793V19.986h3.519V17.63H0zm22.668 3.626V31.73h2.695v-4.774c0-2.257 1.257-3.144 3.013-3.144h.34v-2.658c-1.837 0-2.818.312-3.457 1.641l.01-1.541h-2.6zm23.893-3.626v2.357h3.52v11.745h2.794V19.986h3.518V17.63h-9.832zm57.405 8.848c0-1.865-1.497-3.375-3.345-3.375-1.847 0-3.345 1.51-3.345 3.375s1.498 3.376 3.345 3.376c1.848 0 3.345-1.51 3.345-3.376zm2.545 0c0 3.283-2.637 5.945-5.89 5.945-3.252 0-5.887-2.662-5.887-5.945 0-3.282 2.635-5.943 5.887-5.943 3.253 0 5.89 2.66 5.89 5.943zm1.92-5.222V31.73h2.695v-6.065c0-1.349.6-2.417 1.936-2.417 1.218 0 1.657.927 1.657 1.854v6.628h2.694v-6.043c0-1.371.58-2.439 1.915-2.439 1.257 0 1.677.927 1.677 1.995v6.487h2.695v-6.306c0-3.042-1.576-4.372-3.713-4.372-1.716 0-2.832.847-3.352 1.874-.479-1.148-1.637-1.874-2.854-1.874-1.178 0-2.435.685-2.874 1.591l-.44-1.39h-2.036zm-23.286-2.549v13.025h2.693v-2.518l.999-1.129 2.475 3.647h3.014l-3.932-5.56 4.111-4.916h-3.212l-3.464 4.613-.002-8.691-2.682 1.529zm-54.344 0v13.025h2.694v-2.518l.998-1.129 2.474 3.647h3.015l-3.932-5.56 4.111-4.916h-3.213l-3.463 4.613-.003-8.691-2.681 1.529zm47.535 2.347c-3.194 0-5.39 2.257-5.39 5.48 0 3.204 2.256 5.4 5.789 5.4 1.257 0 2.834-.302 3.95-.908l-.917-1.974c-.759.403-2.016.666-2.974.666-1.456 0-2.894-.745-3.013-2.397h7.345s.06-.483.06-1.068c0-3.164-1.817-5.199-4.85-5.199zm-2.595 4.453c.28-1.51 1.277-2.256 2.754-2.256 1.398 0 2.075 1.046 2.096 2.256h-4.85zm-8.263-6.8v10.365c0 2.38 1.178 2.862 2.435 2.862.619 0 1.298-.101 1.836-.202v-2.075c-.2.04-.498.08-.638.08-.6 0-.938-.262-.938-.845V17.187l-2.695 1.519zm-6.905 2.347c-3.193 0-5.388 2.257-5.388 5.48 0 3.204 2.255 5.4 5.787 5.4 1.257 0 2.834-.302 3.952-.908l-.918-1.974c-.76.403-2.016.666-2.974.666-1.457 0-2.894-.745-3.013-2.397h7.344s.06-.483.06-1.068c0-3.164-1.816-5.199-4.85-5.199zm-2.595 4.453c.28-1.51 1.278-2.256 2.755-2.256 1.397 0 2.075 1.046 2.095 2.256h-4.85zM108.431 53V38.347l12.573 7.327L108.431 53zM123.7 3.526v14.102l12.1-7.051-12.1-7.05zm30.248 3.526V0L160 3.527l-6.052 3.525z" fill="#FEFEFE" mask="url(#fdq2nyg3gb)"/>
        </g>
    </g>
</svg>
