<!-- Generated by IcoMoon.io -->
<svg version="1.1" xmlns="http://www.w3.org/2000/svg" width="29" height="32" viewBox="0 0 29 32">
<title>ulasim</title>
<path fill="#fff" d="M6.877 22.657v-12.368c0-0.376 0.305-0.681 0.681-0.681s0.681 0.305 0.681 0.681v0 13.049c0 0.376-0.305 0.681-0.681 0.681v0h-4.819c-0.376 0-0.681-0.305-0.681-0.681s0.305-0.681 0.681-0.681v0h4.138zM27.531 30.211v-16.488c0-0.376 0.305-0.681 0.681-0.681s0.681 0.305 0.681 0.681v0 17.169c0 0.376-0.305 0.681-0.681 0.681v0h-26.85c-0.376 0-0.681-0.305-0.681-0.681v0-21.977c0-0.376 0.305-0.681 0.681-0.681v0h12.393c0.376 0 0.681 0.305 0.681 0.681s-0.305 0.681-0.681 0.681v0h-11.712v20.615h25.488zM22.508 19c-0.123 0.128-0.295 0.208-0.485 0.211h-0.001c-0.002 0-0.004 0-0.005 0-0.31 0-0.572-0.207-0.655-0.489l-0.001-0.005c-0.5-1.653-1.281-2.864-2.701-4.462-0.157-0.177-0.869-0.963-1.057-1.176-1.723-1.949-2.465-3.397-2.465-5.537 0.001-3.67 3.237-6.862 6.879-6.862s6.877 3.192 6.877 6.862c0 2.14-0.741 3.588-2.463 5.537-0.189 0.213-0.9 0.998-1.057 1.176-1.42 1.597-2.202 2.809-2.701 4.462-0.031 0.106-0.086 0.204-0.163 0.283zM24.353 13.351c0.164-0.184 0.874-0.967 1.055-1.173 1.524-1.723 2.123-2.894 2.123-4.635 0-2.914-2.623-5.5-5.516-5.5s-5.516 2.587-5.516 5.5c0 1.742 0.599 2.912 2.122 4.635 0.182 0.206 0.892 0.989 1.055 1.173 1.049 1.18 1.791 2.19 2.338 3.306 0.546-1.117 1.29-2.126 2.338-3.306zM22.026 6.163c-0.771 0-1.393 0.615-1.393 1.371s0.622 1.371 1.393 1.371c0.771 0 1.393-0.615 1.393-1.371s-0.622-1.371-1.394-1.371zM22.026 4.801c1.52 0 2.755 1.221 2.755 2.732s-1.235 2.733-2.755 2.733c-1.52 0-2.755-1.221-2.755-2.733s1.235-2.732 2.755-2.732zM11.001 19.899c-0.376 0-0.681-0.305-0.681-0.681v0-8.928c0-0.376 0.305-0.681 0.681-0.681s0.681 0.305 0.681 0.681v0 8.247h4.822c0 0 0 0 0.001 0 0.187 0 0.357 0.076 0.48 0.198l-0-0 2.559 2.548h7.292c0.376 0 0.681 0.305 0.681 0.681s-0.305 0.681-0.681 0.681v0h-7.573c-0.188-0-0.358-0.076-0.481-0.199v0l-2.559-2.548h-5.222zM18.166 25.405h1.096c0.376 0 0.681 0.305 0.681 0.681v0 3.434c0 0.376-0.305 0.681-0.681 0.681s-0.681-0.305-0.681-0.681v0-2.753h-0.696c-0.188-0-0.358-0.076-0.481-0.199l-2.555-2.548h-3.169v5.5c0 0.376-0.305 0.681-0.681 0.681s-0.681-0.305-0.681-0.681v0-6.181c0-0.376 0.305-0.681 0.681-0.681v0h4.131c0.188 0 0.358 0.076 0.481 0.199l2.554 2.548zM24.074 29.518c0 0.376-0.305 0.681-0.681 0.681s-0.681-0.305-0.681-0.681v0-3.433c0-0.376 0.305-0.681 0.681-0.681v0h3.442c0.376 0 0.681 0.305 0.681 0.681s-0.305 0.681-0.681 0.681v0h-2.762v2.752zM2.738 27.453c-0.376 0-0.681-0.305-0.681-0.681s0.305-0.681 0.681-0.681v0h4.819c0.376 0 0.681 0.305 0.681 0.681v0 2.747c0 0.376-0.305 0.681-0.681 0.681s-0.681-0.305-0.681-0.681v0-2.066h-4.138z"></path>
</svg>
