<!-- Generated by IcoMoon.io -->
<svg version="1.1" xmlns="http://www.w3.org/2000/svg" width="33" height="32" viewBox="0 0 33 32">
<title>yasam</title>
<path fill="#fff" d="M8.212 16.794h-2.732v2.061h2.732v-2.061zM8.212 15.417v-3.437c0-0.381 0.308-0.689 0.688-0.689h1.366v-2.749c0-0.38 0.308-0.689 0.688-0.689h10.953c0.38 0 0.687 0.309 0.687 0.689v2.749h1.366c0.38 0 0.687 0.309 0.687 0.689v3.437h3.421c0.38 0 0.688 0.309 0.688 0.689v2.75h1.366c0.38 0 0.688 0.308 0.688 0.688v11.002h2.051v1.378h-32.859v-1.378h2.051v-11.002c0-0.38 0.308-0.688 0.688-0.688h1.366v-2.751c0-0.38 0.308-0.688 0.688-0.688h3.419zM8.212 20.234h-4.785v10.313h4.785v-10.313zM24.646 16.794v2.061h2.733v-2.061h-2.733zM24.646 20.232v10.314h4.787v-10.313h-4.787zM9.587 30.547h4.101v-2.75c0-0.38 0.308-0.688 0.687-0.688h4.108c0.38 0 0.688 0.308 0.688 0.688v2.75h4.101v-17.878h-13.684v17.878zM17.795 30.547v-2.060h-2.732v2.060h2.732zM11.64 11.29h9.578v-2.060h-9.578v2.060zM13.010 18.856h-1.375v-2.751c0-0.38 0.308-0.688 0.687-0.688h2.738c0.38 0 0.688 0.308 0.688 0.688v2.751h-1.375v-2.062h-1.363v2.062zM13.010 24.358h-1.375v-2.751c0-0.38 0.308-0.689 0.687-0.689h2.738c0.38 0 0.688 0.309 0.688 0.689v2.751h-1.375v-2.062h-1.363v2.062zM18.486 18.856h-1.375v-2.751c0-0.38 0.308-0.688 0.688-0.688h2.739c0.38 0 0.688 0.308 0.688 0.688v2.751h-1.375v-2.062h-1.363v2.062zM18.486 24.358h-1.375v-2.751c0-0.38 0.308-0.689 0.688-0.689h2.739c0.38 0 0.688 0.309 0.688 0.689v2.751h-1.375v-2.062h-1.363v2.062zM23.959 3.726v1.377h-4.724c-0.258 0-0.495-0.145-0.612-0.376-0.29-0.567-0.926-1.020-1.525-1.020-0.189-0.001-0.389 0.043-0.604 0.13-0.076 0.031-0.164 0.050-0.257 0.050-0.293 0-0.544-0.184-0.642-0.442l-0.002-0.005c-0.455-1.219-1.606-2.063-2.878-2.063-1.467 0-3.073 1.791-3.076 3.039-0.001 0.379-0.308 0.687-0.688 0.687h-5.529v-1.377h4.925c0.419-1.812 2.364-3.726 4.368-3.726 1.645 0 3.129 0.947 3.901 2.373 0.16-0.029 0.321-0.044 0.483-0.043 1.004 0 1.956 0.584 2.522 1.396h4.337zM5.476 7.852v1.378h-4.792v-1.378h4.792zM6.846 9.23v-1.378h1.369v1.378h-1.37zM25.328 5.104v-1.378h1.369v1.377h-1.369zM28.067 5.104v-1.378h1.369v1.377h-1.369zM26.013 22.984v-1.378h2.054v1.378h-2.054zM26.013 25.735v-1.378h2.054v1.378h-2.054zM26.013 28.486v-1.378h2.054v1.378h-2.054zM6.846 21.606v1.378h-2.054v-1.378h2.054zM6.846 24.357v1.378h-2.054v-1.378h2.054zM6.846 27.108v1.378h-2.054v-1.378h2.054z"></path>
</svg>
